<svg preserveAspectRatio="none" overflow="visible" style="display: block;" width="36" height="36" viewBox="0 0 36 36" fill="none" xmlns="http://www.w3.org/2000/svg">
<g id="Icons">
<path id="Vector" d="M18 3.375C15.1074 3.375 12.2799 4.23274 9.87479 5.83976C7.46972 7.44677 5.59519 9.73089 4.48826 12.4033C3.38133 15.0756 3.09171 18.0162 3.65602 20.8532C4.22032 23.6902 5.61322 26.2961 7.65856 28.3414C9.70391 30.3868 12.3098 31.7797 15.1468 32.344C17.9838 32.9083 20.9244 32.6187 23.5967 31.5117C26.2691 30.4048 28.5532 28.5303 30.1602 26.1252C31.7673 23.7201 32.625 20.8926 32.625 18C32.6209 14.1225 31.0787 10.4049 28.3369 7.66309C25.5951 4.92125 21.8775 3.37909 18 3.375ZM30.375 18C30.3762 19.5876 30.0706 21.1605 29.475 22.6322L23.1891 18.7664C22.9218 18.6015 22.6228 18.4946 22.3116 18.4528L19.1025 18.0197C18.6603 17.962 18.2109 18.0362 17.8107 18.2328C17.4104 18.4294 17.0771 18.7398 16.8525 19.125H15.6263L15.0919 18.0197C14.9441 17.7119 14.7279 17.442 14.4598 17.2307C14.1917 17.0194 13.8788 16.8722 13.545 16.8005L12.42 16.5572L13.5197 14.625H15.8695C16.2498 14.6243 16.6237 14.5275 16.9566 14.3438L18.6792 13.3931C18.8306 13.3088 18.9721 13.2078 19.1011 13.0922L22.8853 9.66938C23.2647 9.32936 23.5169 8.87018 23.6002 8.36757C23.6836 7.86496 23.5931 7.34896 23.3438 6.90469L23.2931 6.81328C25.4107 7.81734 27.2 9.40133 28.4535 11.3814C29.707 13.3615 30.3733 15.6565 30.375 18ZM20.153 5.81344L21.375 8.00156L17.5908 11.4244L15.8695 12.375H13.5197C13.1242 12.3744 12.7355 12.4781 12.3928 12.6756C12.0501 12.8731 11.7656 13.1575 11.5678 13.5L10.3402 15.6417L8.91281 11.8392L10.4512 8.20125C11.813 7.14908 13.3795 6.39295 15.0504 5.98128C16.7213 5.56961 18.4597 5.51148 20.1544 5.81062L20.153 5.81344ZM5.625 18C5.62312 16.1607 6.03349 14.3443 6.82594 12.6844L8.42063 16.9411C8.55352 17.2935 8.77277 17.607 9.05827 17.8527C9.34377 18.0984 9.68638 18.2685 10.0547 18.3473L13.0683 18.9956L13.6041 20.1094C13.79 20.4882 14.0782 20.8074 14.436 21.0311C14.7938 21.2547 15.2071 21.3739 15.6291 21.375H15.8372L14.8205 23.6573C14.6413 24.0592 14.5839 24.5048 14.6554 24.939C14.7269 25.3731 14.9241 25.7768 15.2227 26.1L15.2423 26.1197L18 28.9603L17.7272 30.3666C14.4954 30.2914 11.4209 28.9561 9.15992 26.6457C6.8989 24.3353 5.63036 21.2327 5.625 18ZM20.0503 30.2034L20.2092 29.3864C20.2745 29.0393 20.2577 28.6817 20.16 28.3423C20.0623 28.0029 19.8865 27.691 19.6467 27.4317C19.6398 27.4255 19.6332 27.4189 19.627 27.412L16.875 24.5728L18.8016 20.25L22.0106 20.6831L28.44 24.6375C27.5085 26.1003 26.2806 27.3515 24.8355 28.3103C23.3903 29.269 21.7602 29.9139 20.0503 30.2034Z" fill="#38BEC9"/>
</g>
</svg>
