<svg preserveAspectRatio="none" overflow="visible" style="display: block;" width="36" height="36" viewBox="0 0 36 36" fill="none" xmlns="http://www.w3.org/2000/svg">
<g id="Icons">
<path id="Vector" d="M28.2333 7.57828C25.5104 4.88192 21.8321 3.37107 18 3.375H17.8495C13.9969 3.41464 10.3155 4.97297 7.60523 7.7114C4.89497 10.4498 3.3748 14.1471 3.375 18C3.375 24.0469 7.11281 29.1178 13.1288 31.2427C13.8073 31.4819 14.5333 31.5549 15.2459 31.4557C15.9585 31.3564 16.6368 31.0877 17.2242 30.6722C17.8115 30.2566 18.2906 29.7063 18.6213 29.0673C18.9521 28.4284 19.1248 27.7195 19.125 27C19.125 26.4033 19.3621 25.831 19.784 25.409C20.206 24.9871 20.7783 24.75 21.375 24.75H27.8733C28.8941 24.7549 29.8858 24.4106 30.6839 23.7742C31.482 23.1378 32.0384 22.2475 32.2608 21.2512C32.5122 20.1441 32.6345 19.0115 32.625 17.8763C32.6107 15.9546 32.2151 14.0548 31.4613 12.2871C30.7074 10.5194 29.6102 8.91887 28.2333 7.57828ZM30.0614 20.7563C29.9497 21.2526 29.6719 21.6959 29.274 22.013C28.8762 22.3301 28.382 22.5019 27.8733 22.5H21.375C20.1815 22.5 19.0369 22.9741 18.193 23.818C17.3491 24.6619 16.875 25.8065 16.875 27C16.8745 27.3594 16.7879 27.7134 16.6224 28.0325C16.457 28.3515 16.2176 28.6263 15.9241 28.8338C15.6307 29.0413 15.2918 29.1755 14.9359 29.2252C14.58 29.2748 14.2173 29.2385 13.8783 29.1192C8.78766 27.3234 5.625 23.0625 5.625 18C5.62483 14.74 6.91104 11.6116 9.20419 9.29449C11.4974 6.97737 14.6122 5.65871 17.872 5.625H17.9986C21.2585 5.63766 24.3829 6.93109 26.6979 9.22636C29.0129 11.5216 30.333 14.6348 30.3736 17.8945C30.382 18.8571 30.2791 19.8173 30.067 20.7563H30.0614ZM19.6875 10.6875C19.6875 11.0213 19.5885 11.3475 19.4031 11.625C19.2177 11.9025 18.9541 12.1188 18.6458 12.2465C18.3374 12.3743 17.9981 12.4077 17.6708 12.3426C17.3434 12.2775 17.0428 12.1167 16.8068 11.8807C16.5708 11.6447 16.41 11.3441 16.3449 11.0167C16.2798 10.6894 16.3132 10.3501 16.441 10.0417C16.5687 9.73337 16.785 9.46982 17.0625 9.28439C17.34 9.09897 17.6662 9 18 9C18.4476 9 18.8768 9.17779 19.1932 9.49426C19.5097 9.81072 19.6875 10.2399 19.6875 10.6875ZM13.5 14.0625C13.5 14.3963 13.401 14.7225 13.2156 15C13.0302 15.2775 12.7666 15.4938 12.4583 15.6215C12.1499 15.7493 11.8106 15.7827 11.4833 15.7176C11.1559 15.6525 10.8553 15.4917 10.6193 15.2557C10.3833 15.0197 10.2225 14.7191 10.1574 14.3917C10.0923 14.0644 10.1257 13.7251 10.2535 13.4167C10.3812 13.1084 10.5975 12.8448 10.875 12.6594C11.1525 12.474 11.4787 12.375 11.8125 12.375C12.2601 12.375 12.6893 12.5528 13.0057 12.8693C13.3222 13.1857 13.5 13.6149 13.5 14.0625ZM13.5 21.9375C13.5 22.2713 13.401 22.5975 13.2156 22.875C13.0302 23.1525 12.7666 23.3688 12.4583 23.4965C12.1499 23.6243 11.8106 23.6577 11.4833 23.5926C11.1559 23.5275 10.8553 23.3667 10.6193 23.1307C10.3833 22.8947 10.2225 22.5941 10.1574 22.2667C10.0923 21.9394 10.1257 21.6001 10.2535 21.2917C10.3812 20.9834 10.5975 20.7198 10.875 20.5344C11.1525 20.349 11.4787 20.25 11.8125 20.25C12.2601 20.25 12.6893 20.4278 13.0057 20.7443C13.3222 21.0607 13.5 21.4899 13.5 21.9375ZM25.875 14.0625C25.875 14.3963 25.776 14.7225 25.5906 15C25.4052 15.2775 25.1416 15.4938 24.8333 15.6215C24.5249 15.7493 24.1856 15.7827 23.8583 15.7176C23.5309 15.6525 23.2303 15.4917 22.9943 15.2557C22.7583 15.0197 22.5975 14.7191 22.5324 14.3917C22.4673 14.0644 22.5007 13.7251 22.6285 13.4167C22.7562 13.1084 22.9725 12.8448 23.25 12.6594C23.5275 12.474 23.8537 12.375 24.1875 12.375C24.6351 12.375 25.0643 12.5528 25.3807 12.8693C25.6972 13.1857 25.875 13.6149 25.875 14.0625Z" fill="#38BEC9"/>
</g>
</svg>
