<svg preserveAspectRatio="none" overflow="visible" style="display: block;" width="40.6257" height="39.0607" viewBox="0 0 40.6257 39.0607" fill="none" xmlns="http://www.w3.org/2000/svg">
<path id="Vector" d="M34.5254 5.8379C30.7435 2.09295 25.6348 -0.00544546 20.3125 1.06132e-05H20.1035C14.7526 0.0550662 9.63957 2.21941 5.87532 6.02279C2.11107 9.82617 -0.000283197 14.9613 2.84912e-08 20.3125C2.84912e-08 28.711 5.19141 35.7539 13.5469 38.7051C14.4893 39.0373 15.4976 39.1388 16.4873 39.0009C17.477 38.8631 18.4192 38.4899 19.235 37.9127C20.0507 37.3356 20.7161 36.5712 21.1755 35.6838C21.6348 34.7964 21.8747 33.8118 21.875 32.8125C21.875 31.9837 22.2042 31.1889 22.7903 30.6028C23.3763 30.0168 24.1712 29.6875 25 29.6875H34.0254C35.4431 29.6944 36.8206 29.2161 37.929 28.3322C39.0375 27.4483 39.8103 26.2118 40.1191 24.8281C40.4684 23.2904 40.6381 21.7174 40.625 20.1406C40.6051 17.4716 40.0557 14.8331 39.0087 12.3779C37.9617 9.92278 36.4378 7.69983 34.5254 5.8379ZM37.0645 24.1406C36.9093 24.83 36.5235 25.4457 35.9709 25.8861C35.4183 26.3265 34.732 26.5651 34.0254 26.5625H25C23.3424 26.5625 21.7527 27.221 20.5806 28.3931C19.4085 29.5652 18.75 31.1549 18.75 32.8125C18.7493 33.3117 18.629 33.8034 18.3992 34.2465C18.1695 34.6896 17.8369 35.0713 17.4293 35.3595C17.0218 35.6477 16.5512 35.834 16.0568 35.903C15.5624 35.972 15.0587 35.9215 14.5879 35.7559C7.51758 33.2617 3.125 27.3438 3.125 20.3125C3.12476 15.7847 4.91116 11.4397 8.0961 8.22152C11.281 5.0033 15.6072 3.17183 20.1348 3.12501H20.3105C24.8383 3.1426 29.1777 4.93903 32.3929 8.1269C35.6082 11.3148 37.4417 15.6386 37.498 20.166C37.5097 21.5029 37.3668 22.8366 37.0723 24.1406H37.0645ZM22.6562 10.1563C22.6562 10.6198 22.5188 11.073 22.2613 11.4584C22.0037 11.8438 21.6377 12.1442 21.2094 12.3216C20.7811 12.499 20.3099 12.5454 19.8553 12.455C19.4006 12.3645 18.983 12.1413 18.6552 11.8135C18.3274 11.4858 18.1042 11.0681 18.0138 10.6135C17.9233 10.1589 17.9698 9.68761 18.1472 9.25935C18.3245 8.83108 18.625 8.46504 19.0104 8.2075C19.3958 7.94997 19.8489 7.81251 20.3125 7.81251C20.9341 7.81251 21.5302 8.05944 21.9698 8.49898C22.4093 8.93852 22.6562 9.53466 22.6562 10.1563ZM14.0625 14.8438C14.0625 15.3073 13.925 15.7605 13.6675 16.1459C13.41 16.5313 13.0439 16.8317 12.6157 17.0091C12.1874 17.1865 11.7161 17.2329 11.2615 17.1425C10.8069 17.052 10.3892 16.8288 10.0615 16.501C9.73369 16.1733 9.51047 15.7556 9.42003 15.301C9.3296 14.8464 9.37601 14.3751 9.55341 13.9468C9.7308 13.5186 10.0312 13.1525 10.4166 12.895C10.8021 12.6375 11.2552 12.5 11.7187 12.5C12.3404 12.5 12.9365 12.7469 13.376 13.1865C13.8156 13.626 14.0625 14.2222 14.0625 14.8438ZM14.0625 25.7813C14.0625 26.2448 13.925 26.698 13.6675 27.0834C13.41 27.4688 13.0439 27.7692 12.6157 27.9466C12.1874 28.124 11.7161 28.1704 11.2615 28.08C10.8069 27.9895 10.3892 27.7663 10.0615 27.4385C9.73369 27.1108 9.51047 26.6931 9.42003 26.2385C9.3296 25.7839 9.37601 25.3126 9.55341 24.8843C9.7308 24.4561 10.0312 24.09 10.4166 23.8325C10.8021 23.575 11.2552 23.4375 11.7187 23.4375C12.3404 23.4375 12.9365 23.6844 13.376 24.124C13.8156 24.5635 14.0625 25.1597 14.0625 25.7813ZM31.25 14.8438C31.25 15.3073 31.1125 15.7605 30.855 16.1459C30.5975 16.5313 30.2314 16.8317 29.8032 17.0091C29.3749 17.1865 28.9036 17.2329 28.449 17.1425C27.9944 17.052 27.5767 16.8288 27.249 16.501C26.9212 16.1733 26.698 15.7556 26.6075 15.301C26.5171 14.8464 26.5635 14.3751 26.7409 13.9468C26.9183 13.5186 27.2187 13.1525 27.6041 12.895C27.9896 12.6375 28.4427 12.5 28.9062 12.5C29.5278 12.5 30.124 12.7469 30.5635 13.1865C31.0031 13.626 31.25 14.2222 31.25 14.8438Z" fill="#2CB1BC"/>
</svg>
